<svg width="64" height="58" viewBox="0 0 64 58" fill="none" xmlns="http://www.w3.org/2000/svg">
<path d="M62.0156 24.0332H58.1871C57.8542 17.5534 54.912 11.4436 49.9701 6.96957C45.0281 2.49551 38.4651 0 31.6406 0C24.8161 0 18.2531 2.49551 13.3112 6.96957C8.36921 11.4436 5.42704 17.5534 5.09414 24.0332H1.26562C0.92996 24.0332 0.608044 24.1599 0.370693 24.3855C0.133342 24.6112 0 24.9172 0 25.2363C0.0105705 30.8619 1.6753 36.3727 4.80625 41.1466C7.9372 45.9204 12.4097 49.7671 17.7188 52.2525V54.1113C17.7188 55.0685 18.1188 55.9866 18.8308 56.6635C19.5429 57.3404 20.5086 57.7207 21.5156 57.7207H41.7656C42.7726 57.7207 43.7384 57.3404 44.4504 56.6635C45.1625 55.9866 45.5625 55.0685 45.5625 54.1113V52.2525C50.8716 49.7671 55.344 45.9204 58.475 41.1466C61.6059 36.3727 63.2707 30.8619 63.2812 25.2363C63.2812 24.9172 63.1479 24.6112 62.9106 24.3855C62.6732 24.1599 62.3513 24.0332 62.0156 24.0332ZM55.6527 24.0332H35.7697C37.3969 21.1523 39.6559 18.6372 42.3941 16.6581C45.1322 14.6789 48.2855 13.2818 51.6407 12.5614C54.0445 15.9701 55.4311 19.9347 55.6527 24.0332ZM49.9922 10.4769C46.2867 11.4299 42.8426 13.1353 39.8973 15.4756C36.952 17.816 34.5755 20.7355 32.9316 24.0332H21.098C22.4966 19.201 25.5223 14.9377 29.7121 11.8956C33.9019 8.85361 39.0248 7.20052 44.2969 7.18941C45.0341 7.18941 45.7777 7.22851 46.5117 7.29167C47.7803 8.2409 48.9462 9.30793 49.9922 10.4769ZM31.6406 2.37691C35.4126 2.37378 39.1317 3.22002 42.4934 4.84632C36.8714 5.22128 31.519 7.28021 27.2048 10.7274C22.8907 14.1747 19.8366 18.8329 18.4813 24.0332H7.62855C7.95946 18.1894 10.6327 12.6882 15.0988 8.66024C19.5648 4.63234 25.4844 2.38383 31.6406 2.37691ZM43.7685 50.3996C43.5482 50.4959 43.3616 50.6502 43.2309 50.8443C43.1002 51.0383 43.0309 51.264 43.0312 51.4945V54.1113C43.0312 54.4304 42.8979 54.7364 42.6606 54.962C42.4232 55.1876 42.1013 55.3144 41.7656 55.3144H21.5156C21.18 55.3144 20.858 55.1876 20.6207 54.962C20.3833 54.7364 20.25 54.4304 20.25 54.1113V51.4945C20.2503 51.264 20.181 51.0383 20.0503 50.8443C19.9196 50.6502 19.7331 50.4959 19.5128 50.3996C14.6475 48.2675 10.4928 44.9046 7.50278 40.6788C4.5128 36.453 2.80278 31.5269 2.55973 26.4394H60.7215C60.4785 31.5269 58.7685 36.453 55.7785 40.6788C52.7885 44.9046 48.6337 48.2675 43.7685 50.3996Z" fill="#540375"/>
</svg>
