<svg width="18" height="30" viewBox="0 0 18 30" fill="none" xmlns="http://www.w3.org/2000/svg">
<path fill-rule="evenodd" clip-rule="evenodd" d="M2.74191 7.92766C2.74191 5.09281 5.56064 2.7419 8.52376 2.7419C11.4869 2.7419 14.3056 5.09281 14.3056 7.92766C14.3056 10.547 12.977 11.7767 11.1905 13.361L11.1167 13.4265C9.34576 14.9962 7.1528 16.9401 7.1528 20.8027C7.1528 21.5599 7.76659 22.1736 8.52376 22.1736C9.28091 22.1736 9.89472 21.5599 9.89472 20.8027C9.89472 18.2162 11.2166 17.0027 13.0098 15.4125L13.0594 15.3684C14.841 13.7889 17.0474 11.8325 17.0474 7.92766C17.0474 3.22483 12.6215 0 8.52376 0C4.42604 0 0 3.22483 0 7.92766C0 8.68483 0.613806 9.29861 1.37095 9.29861C2.1281 9.29861 2.74191 8.68483 2.74191 7.92766ZM8.52376 30C9.67596 30 10.61 29.0658 10.61 27.9138C10.61 26.7614 9.67596 25.8275 8.52376 25.8275C7.37156 25.8275 6.43753 26.7614 6.43753 27.9138C6.43753 29.0658 7.37156 30 8.52376 30Z" fill="#540375"/>
</svg>
